<mxfile host="app.diagrams.net" modified="2022-12-22T15:00:27.032Z" agent="5.0 (Windows NT 10.0; Win64; x64) AppleWebKit/537.36 (KHTML, like Gecko) Chrome/108.0.0.0 Safari/537.36" etag="Rj68h3MBYZSmKA7if_bJ" version="20.7.4" type="github">
  <diagram name="Page-1" id="03018318-947c-dd8e-b7a3-06fadd420f32">
    <mxGraphModel dx="643" dy="750" grid="1" gridSize="10" guides="1" tooltips="1" connect="1" arrows="1" fold="1" page="1" pageScale="1" pageWidth="1100" pageHeight="850" background="none" math="0" shadow="0">
      <root>
        <mxCell id="0" />
        <mxCell id="1" parent="0" />
        <mxCell id="w6ef0og6zVdC-_Kzne1W-5" value="" style="rounded=0;whiteSpace=wrap;html=1;strokeWidth=1;fontSize=17;fontColor=#FF0000;" parent="1" vertex="1">
          <mxGeometry x="240" y="90" width="540" height="960" as="geometry" />
        </mxCell>
        <mxCell id="w6ef0og6zVdC-_Kzne1W-41" value="" style="verticalLabelPosition=bottom;shadow=0;dashed=0;align=center;html=1;verticalAlign=top;strokeWidth=1;shape=mxgraph.mockup.forms.splitter;strokeColor=#999999;direction=north;fontSize=20;fontColor=#000000;fontFamily=Verdana;" parent="1" vertex="1">
          <mxGeometry x="730" y="540" width="10" height="390" as="geometry" />
        </mxCell>
        <mxCell id="677b7b8949515195-11" value="New Resource" style="text;html=1;points=[];align=left;verticalAlign=top;spacingTop=-4;fontSize=20;fontFamily=Verdana;strokeWidth=1;fontStyle=1" parent="1" vertex="1">
          <mxGeometry x="430" y="110" width="60" height="20" as="geometry" />
        </mxCell>
        <mxCell id="677b7b8949515195-27" value="&lt;font color=&quot;#ff0000&quot;&gt;*&lt;/font&gt;Resource Name" style="text;html=1;points=[];align=left;verticalAlign=top;spacingTop=-4;fontSize=14;fontFamily=Verdana;" parent="1" vertex="1">
          <mxGeometry x="280" y="190" width="170" height="20" as="geometry" />
        </mxCell>
        <mxCell id="w6ef0og6zVdC-_Kzne1W-1" value="&lt;font color=&quot;#9c9c9c&quot; style=&quot;font-size: 12px;&quot;&gt;&lt;i&gt;string&amp;nbsp;&lt;/i&gt;First Name + Last Name&lt;/font&gt;" style="rounded=1;whiteSpace=wrap;html=1;fontSize=17;fontFamily=Verdana;align=left;" parent="1" vertex="1">
          <mxGeometry x="280" y="215" width="200" height="25" as="geometry" />
        </mxCell>
        <mxCell id="w6ef0og6zVdC-_Kzne1W-6" value="Basic Information" style="text;html=1;points=[];align=left;verticalAlign=top;spacingTop=-4;fontSize=14;fontFamily=Verdana;fillColor=#f5f5f5;fontColor=#333333;strokeColor=#666666;" parent="1" vertex="1">
          <mxGeometry x="270" y="150" width="460" height="20" as="geometry" />
        </mxCell>
        <mxCell id="w6ef0og6zVdC-_Kzne1W-7" value="Status Resource" style="text;html=1;points=[];align=left;verticalAlign=top;spacingTop=-4;fontSize=14;fontFamily=Verdana;fillColor=#f5f5f5;fontColor=#333333;strokeColor=#666666;" parent="1" vertex="1">
          <mxGeometry x="270" y="770" width="460" height="20" as="geometry" />
        </mxCell>
        <mxCell id="w6ef0og6zVdC-_Kzne1W-8" value="&lt;font color=&quot;#ff0000&quot;&gt;*&lt;/font&gt;EnterpriseID" style="text;html=1;points=[];align=left;verticalAlign=top;spacingTop=-4;fontSize=14;fontFamily=Verdana;" parent="1" vertex="1">
          <mxGeometry x="280" y="255" width="170" height="20" as="geometry" />
        </mxCell>
        <mxCell id="w6ef0og6zVdC-_Kzne1W-9" value="&lt;div style=&quot;&quot;&gt;&lt;span style=&quot;background-color: initial; font-size: 12px;&quot;&gt;&lt;font color=&quot;#a3a3a3&quot;&gt;&lt;i&gt;string &lt;/i&gt;(auto?)&lt;/font&gt;&lt;/span&gt;&lt;/div&gt;" style="rounded=1;whiteSpace=wrap;html=1;fontSize=17;fontFamily=Verdana;align=left;" parent="1" vertex="1">
          <mxGeometry x="280" y="280" width="160" height="25" as="geometry" />
        </mxCell>
        <mxCell id="w6ef0og6zVdC-_Kzne1W-10" value="&lt;font color=&quot;#ff0000&quot;&gt;*&lt;/font&gt;Personnel Number" style="text;html=1;points=[];align=left;verticalAlign=top;spacingTop=-4;fontSize=14;fontFamily=Verdana;" parent="1" vertex="1">
          <mxGeometry x="520" y="255" width="170" height="20" as="geometry" />
        </mxCell>
        <mxCell id="w6ef0og6zVdC-_Kzne1W-12" value="&lt;font color=&quot;#ff0000&quot;&gt;*&lt;/font&gt;Organization" style="text;html=1;points=[];align=left;verticalAlign=top;spacingTop=-4;fontSize=14;fontFamily=Verdana;" parent="1" vertex="1">
          <mxGeometry x="280" y="325" width="170" height="20" as="geometry" />
        </mxCell>
        <mxCell id="w6ef0og6zVdC-_Kzne1W-13" value="&lt;font color=&quot;#a3a3a3&quot; style=&quot;font-size: 12px;&quot;&gt;&lt;i&gt;picklist&lt;/i&gt;&lt;/font&gt;" style="strokeWidth=1;shadow=0;dashed=0;align=center;html=1;shape=mxgraph.mockup.forms.comboBox;strokeColor=default;fillColor=default;align=left;fillColor2=#aaddff;mainText=;fontColor=default;fontSize=17;spacingLeft=3;fontFamily=Verdana;" parent="1" vertex="1">
          <mxGeometry x="280" y="350" width="160" height="25" as="geometry" />
        </mxCell>
        <mxCell id="w6ef0og6zVdC-_Kzne1W-14" value="&lt;div style=&quot;&quot;&gt;&lt;span style=&quot;background-color: initial; font-size: 12px;&quot;&gt;&lt;font color=&quot;#a3a3a3&quot;&gt;&lt;i&gt;number&lt;/i&gt; (auto?)&lt;/font&gt;&lt;/span&gt;&lt;/div&gt;" style="rounded=1;whiteSpace=wrap;html=1;fontSize=17;fontFamily=Verdana;align=left;" parent="1" vertex="1">
          <mxGeometry x="520" y="280" width="160" height="25" as="geometry" />
        </mxCell>
        <mxCell id="w6ef0og6zVdC-_Kzne1W-19" value="&lt;font color=&quot;#ff0000&quot;&gt;*&lt;/font&gt;Location" style="text;html=1;points=[];align=left;verticalAlign=top;spacingTop=-4;fontSize=14;fontFamily=Verdana;" parent="1" vertex="1">
          <mxGeometry x="520" y="325" width="170" height="20" as="geometry" />
        </mxCell>
        <mxCell id="w6ef0og6zVdC-_Kzne1W-20" value="&lt;i style=&quot;border-color: var(--border-color); color: rgb(163, 163, 163); font-size: 12px;&quot;&gt;picklist&lt;/i&gt;" style="strokeWidth=1;shadow=0;dashed=0;align=center;html=1;shape=mxgraph.mockup.forms.comboBox;strokeColor=default;fillColor=default;align=left;fillColor2=#aaddff;mainText=;fontColor=default;fontSize=17;spacingLeft=3;fontFamily=Verdana;" parent="1" vertex="1">
          <mxGeometry x="520" y="350" width="160" height="25" as="geometry" />
        </mxCell>
        <mxCell id="w6ef0og6zVdC-_Kzne1W-21" value="&lt;font color=&quot;#ff0000&quot;&gt;*&lt;/font&gt;Type" style="text;html=1;points=[];align=left;verticalAlign=top;spacingTop=-4;fontSize=14;fontFamily=Verdana;" parent="1" vertex="1">
          <mxGeometry x="280" y="395" width="170" height="20" as="geometry" />
        </mxCell>
        <mxCell id="w6ef0og6zVdC-_Kzne1W-22" value="&lt;i style=&quot;border-color: var(--border-color); color: rgb(163, 163, 163); font-size: 12px;&quot;&gt;picklist&lt;/i&gt;" style="strokeWidth=1;shadow=0;dashed=0;align=center;html=1;shape=mxgraph.mockup.forms.comboBox;strokeColor=default;fillColor=default;align=left;fillColor2=#aaddff;mainText=;fontColor=default;fontSize=17;spacingLeft=3;fontFamily=Verdana;" parent="1" vertex="1">
          <mxGeometry x="280" y="420" width="160" height="25" as="geometry" />
        </mxCell>
        <mxCell id="w6ef0og6zVdC-_Kzne1W-23" value="&lt;font color=&quot;#ff0000&quot;&gt;*&lt;/font&gt;Profile" style="text;html=1;points=[];align=left;verticalAlign=top;spacingTop=-4;fontSize=14;fontFamily=Verdana;" parent="1" vertex="1">
          <mxGeometry x="520" y="395" width="170" height="20" as="geometry" />
        </mxCell>
        <mxCell id="w6ef0og6zVdC-_Kzne1W-24" value="" style="strokeWidth=1;shadow=0;dashed=0;align=center;html=1;shape=mxgraph.mockup.forms.comboBox;strokeColor=default;fillColor=default;align=left;fillColor2=#aaddff;mainText=;fontColor=default;fontSize=17;spacingLeft=3;fontFamily=Verdana;" parent="1" vertex="1">
          <mxGeometry x="520" y="420" width="160" height="25" as="geometry" />
        </mxCell>
        <mxCell id="w6ef0og6zVdC-_Kzne1W-25" value="&lt;font style=&quot;font-size: 14px;&quot;&gt;&lt;font style=&quot;font-size: 14px;&quot; color=&quot;#ff0000&quot;&gt;*&lt;/font&gt;Career Level Name&amp;nbsp;&lt;/font&gt;" style="text;html=1;points=[];align=left;verticalAlign=top;spacingTop=-4;fontSize=14;fontFamily=Verdana;" parent="1" vertex="1">
          <mxGeometry x="280" y="460" width="300" height="20" as="geometry" />
        </mxCell>
        <mxCell id="w6ef0og6zVdC-_Kzne1W-26" value="" style="strokeWidth=1;shadow=0;dashed=0;align=center;html=1;shape=mxgraph.mockup.forms.comboBox;strokeColor=default;fillColor=default;align=left;fillColor2=#aaddff;mainText=;fontColor=default;fontSize=17;spacingLeft=3;fontFamily=Verdana;" parent="1" vertex="1">
          <mxGeometry x="280" y="486" width="160" height="25" as="geometry" />
        </mxCell>
        <mxCell id="w6ef0og6zVdC-_Kzne1W-27" value="" style="verticalLabelPosition=bottom;shadow=0;dashed=0;align=center;html=1;verticalAlign=top;strokeWidth=1;shape=mxgraph.mockup.forms.splitter;strokeColor=#999999;direction=north;fontSize=20;fontColor=#000000;fontFamily=Verdana;" parent="1" vertex="1">
          <mxGeometry x="730" y="150" width="10" height="390" as="geometry" />
        </mxCell>
        <mxCell id="w6ef0og6zVdC-_Kzne1W-29" value="Actual Bill Code&lt;span style=&quot;font-size: 14px;&quot;&gt;&amp;nbsp;&lt;/span&gt;" style="text;html=1;points=[];align=left;verticalAlign=top;spacingTop=-4;fontSize=14;fontFamily=Verdana;" parent="1" vertex="1">
          <mxGeometry x="520" y="466" width="300" height="20" as="geometry" />
        </mxCell>
        <UserObject label="(Formula)&amp;nbsp;&lt;span style=&quot;font-size: 12px;&quot;&gt;Calculated&lt;br style=&quot;font-size: 12px;&quot;&gt;based on Career Level Resource&lt;/span&gt;" placeholders="1" name="Variable" id="w6ef0og6zVdC-_Kzne1W-30">
          <mxCell style="text;html=1;strokeColor=#666666;fillColor=#f5f5f5;align=left;verticalAlign=middle;whiteSpace=wrap;overflow=hidden;strokeWidth=1;fontSize=12;fontColor=#333333;fontStyle=0;fontFamily=Verdana;" parent="1" vertex="1">
            <mxGeometry x="520" y="486" width="200" height="44" as="geometry" />
          </mxCell>
        </UserObject>
        <mxCell id="w6ef0og6zVdC-_Kzne1W-35" value="&lt;font style=&quot;font-size: 14px;&quot;&gt;Actual &lt;font style=&quot;font-size: 14px;&quot;&gt;Cost&lt;/font&gt;&lt;/font&gt;" style="text;html=1;points=[];align=left;verticalAlign=top;spacingTop=-4;fontSize=14;fontFamily=Verdana;" parent="1" vertex="1">
          <mxGeometry x="280" y="550" width="300" height="20" as="geometry" />
        </mxCell>
        <UserObject label="(Formula)&amp;nbsp;&lt;span style=&quot;font-size: 12px;&quot;&gt;Calculated&lt;br style=&quot;font-size: 12px;&quot;&gt;based on Career Level Resource&lt;/span&gt;" placeholders="1" name="Variable" id="w6ef0og6zVdC-_Kzne1W-38">
          <mxCell style="text;html=1;strokeColor=#666666;fillColor=#f5f5f5;align=left;verticalAlign=middle;whiteSpace=wrap;overflow=hidden;strokeWidth=1;fontSize=12;fontColor=#333333;fontStyle=0;fontFamily=Verdana;" parent="1" vertex="1">
            <mxGeometry x="280" y="570" width="200" height="44" as="geometry" />
          </mxCell>
        </UserObject>
        <mxCell id="w6ef0og6zVdC-_Kzne1W-42" value="&lt;font style=&quot;font-size: 14px;&quot;&gt;&lt;font style=&quot;font-size: 14px;&quot; color=&quot;#ff0000&quot;&gt;*&lt;/font&gt;Actual Assignment Type&amp;nbsp;&lt;/font&gt;" style="text;html=1;points=[];align=left;verticalAlign=top;spacingTop=-4;fontSize=14;fontFamily=Verdana;" parent="1" vertex="1">
          <mxGeometry x="520" y="550" width="300" height="20" as="geometry" />
        </mxCell>
        <mxCell id="w6ef0og6zVdC-_Kzne1W-43" value="" style="strokeWidth=1;shadow=0;dashed=0;align=center;html=1;shape=mxgraph.mockup.forms.comboBox;strokeColor=default;fillColor=default;align=left;fillColor2=#aaddff;mainText=;fontColor=default;fontSize=17;spacingLeft=3;fontFamily=Verdana;" parent="1" vertex="1">
          <mxGeometry x="520" y="576" width="160" height="25" as="geometry" />
        </mxCell>
        <mxCell id="w6ef0og6zVdC-_Kzne1W-44" value="&lt;font style=&quot;font-size: 14px;&quot;&gt;&lt;font style=&quot;font-size: 14px;&quot; color=&quot;#ff0000&quot;&gt;*&lt;/font&gt;Contract&lt;/font&gt;" style="text;html=1;points=[];align=left;verticalAlign=top;spacingTop=-4;fontSize=14;fontFamily=Verdana;" parent="1" vertex="1">
          <mxGeometry x="280" y="630" width="300" height="20" as="geometry" />
        </mxCell>
        <mxCell id="w6ef0og6zVdC-_Kzne1W-45" value="" style="strokeWidth=1;shadow=0;dashed=0;align=center;html=1;shape=mxgraph.mockup.forms.comboBox;strokeColor=default;fillColor=default;align=left;fillColor2=#aaddff;mainText=;fontColor=default;fontSize=17;spacingLeft=3;fontFamily=Verdana;" parent="1" vertex="1">
          <mxGeometry x="280" y="656" width="160" height="25" as="geometry" />
        </mxCell>
        <mxCell id="VZRTfVRfsdjERJp8t25M-1" value="&lt;font style=&quot;font-size: 14px;&quot;&gt;&lt;font style=&quot;font-size: 14px;&quot; color=&quot;#ff0000&quot;&gt;*&lt;/font&gt;Onboard date&lt;/font&gt;" style="text;html=1;points=[];align=left;verticalAlign=top;spacingTop=-4;fontSize=14;fontFamily=Verdana;" vertex="1" parent="1">
          <mxGeometry x="520" y="630" width="300" height="20" as="geometry" />
        </mxCell>
        <mxCell id="VZRTfVRfsdjERJp8t25M-2" value="" style="strokeWidth=1;shadow=0;dashed=0;align=center;html=1;shape=mxgraph.mockup.forms.comboBox;strokeColor=default;fillColor=default;align=left;fillColor2=#aaddff;mainText=;fontColor=default;fontSize=17;spacingLeft=3;fontFamily=Verdana;" vertex="1" parent="1">
          <mxGeometry x="520" y="656" width="160" height="25" as="geometry" />
        </mxCell>
        <mxCell id="VZRTfVRfsdjERJp8t25M-3" value="" style="strokeWidth=1;shadow=0;dashed=0;align=center;html=1;shape=mxgraph.mockup.forms.rrect;rSize=5;strokeColor=#999999;fillColor=#ffffff;fontFamily=Verdana;fontSize=14;fontColor=#9d9595;" vertex="1" parent="1">
          <mxGeometry x="520" y="675" width="160" height="175" as="geometry" />
        </mxCell>
        <mxCell id="VZRTfVRfsdjERJp8t25M-4" value="October 2014" style="strokeWidth=1;shadow=0;dashed=0;align=center;html=1;shape=mxgraph.mockup.forms.anchor;fontColor=#999999;fontFamily=Verdana;fontSize=14;" vertex="1" parent="VZRTfVRfsdjERJp8t25M-3">
          <mxGeometry x="30" y="8" width="100" height="20" as="geometry" />
        </mxCell>
        <mxCell id="VZRTfVRfsdjERJp8t25M-5" value="&lt;" style="strokeWidth=1;shadow=0;dashed=0;align=center;html=1;shape=mxgraph.mockup.forms.rrect;rSize=4;strokeColor=#999999;fontColor=#008cff;fontSize=19;fontStyle=1;fontFamily=Verdana;" vertex="1" parent="VZRTfVRfsdjERJp8t25M-3">
          <mxGeometry x="8" y="8" width="25" height="20" as="geometry" />
        </mxCell>
        <mxCell id="VZRTfVRfsdjERJp8t25M-6" value="&gt;" style="strokeWidth=1;shadow=0;dashed=0;align=center;html=1;shape=mxgraph.mockup.forms.rrect;rSize=4;strokeColor=#999999;fontColor=#008cff;fontSize=19;fontStyle=1;fontFamily=Verdana;" vertex="1" parent="VZRTfVRfsdjERJp8t25M-3">
          <mxGeometry x="127" y="8" width="25" height="20" as="geometry" />
        </mxCell>
        <mxCell id="VZRTfVRfsdjERJp8t25M-7" value="Mo" style="strokeWidth=1;shadow=0;dashed=0;align=center;html=1;shape=mxgraph.mockup.forms.anchor;fontColor=#999999;fontFamily=Verdana;fontSize=14;" vertex="1" parent="VZRTfVRfsdjERJp8t25M-3">
          <mxGeometry x="10" y="28" width="20" height="20" as="geometry" />
        </mxCell>
        <mxCell id="VZRTfVRfsdjERJp8t25M-8" value="Tu" style="strokeWidth=1;shadow=0;dashed=0;align=center;html=1;shape=mxgraph.mockup.forms.anchor;fontColor=#999999;fontFamily=Verdana;fontSize=14;" vertex="1" parent="VZRTfVRfsdjERJp8t25M-3">
          <mxGeometry x="30" y="28" width="20" height="20" as="geometry" />
        </mxCell>
        <mxCell id="VZRTfVRfsdjERJp8t25M-9" value="We" style="strokeWidth=1;shadow=0;dashed=0;align=center;html=1;shape=mxgraph.mockup.forms.anchor;fontColor=#999999;fontFamily=Verdana;fontSize=14;" vertex="1" parent="VZRTfVRfsdjERJp8t25M-3">
          <mxGeometry x="50" y="28" width="20" height="20" as="geometry" />
        </mxCell>
        <mxCell id="VZRTfVRfsdjERJp8t25M-10" value="Th" style="strokeWidth=1;shadow=0;dashed=0;align=center;html=1;shape=mxgraph.mockup.forms.anchor;fontColor=#999999;fontFamily=Verdana;fontSize=14;" vertex="1" parent="VZRTfVRfsdjERJp8t25M-3">
          <mxGeometry x="70" y="28" width="20" height="20" as="geometry" />
        </mxCell>
        <mxCell id="VZRTfVRfsdjERJp8t25M-11" value="Fr" style="strokeWidth=1;shadow=0;dashed=0;align=center;html=1;shape=mxgraph.mockup.forms.anchor;fontColor=#999999;fontFamily=Verdana;fontSize=14;" vertex="1" parent="VZRTfVRfsdjERJp8t25M-3">
          <mxGeometry x="90" y="28" width="20" height="20" as="geometry" />
        </mxCell>
        <mxCell id="VZRTfVRfsdjERJp8t25M-12" value="Sa" style="strokeWidth=1;shadow=0;dashed=0;align=center;html=1;shape=mxgraph.mockup.forms.anchor;fontColor=#999999;fontFamily=Verdana;fontSize=14;" vertex="1" parent="VZRTfVRfsdjERJp8t25M-3">
          <mxGeometry x="110" y="28" width="20" height="20" as="geometry" />
        </mxCell>
        <mxCell id="VZRTfVRfsdjERJp8t25M-13" value="Su" style="strokeWidth=1;shadow=0;dashed=0;align=center;html=1;shape=mxgraph.mockup.forms.anchor;fontColor=#999999;fontFamily=Verdana;fontSize=14;" vertex="1" parent="VZRTfVRfsdjERJp8t25M-3">
          <mxGeometry x="130" y="28" width="20" height="20" as="geometry" />
        </mxCell>
        <mxCell id="VZRTfVRfsdjERJp8t25M-14" value="1" style="strokeWidth=1;shadow=0;dashed=0;align=center;html=1;shape=mxgraph.mockup.forms.rrect;rSize=0;strokeColor=#999999;fontColor=#999999;fontFamily=Verdana;fontSize=14;" vertex="1" parent="VZRTfVRfsdjERJp8t25M-3">
          <mxGeometry x="10" y="48" width="20" height="20" as="geometry" />
        </mxCell>
        <mxCell id="VZRTfVRfsdjERJp8t25M-15" value="2" style="strokeWidth=1;shadow=0;dashed=0;align=center;html=1;shape=mxgraph.mockup.forms.rrect;rSize=0;strokeColor=#999999;fontColor=#999999;fontFamily=Verdana;fontSize=14;" vertex="1" parent="VZRTfVRfsdjERJp8t25M-3">
          <mxGeometry x="30" y="48" width="20" height="20" as="geometry" />
        </mxCell>
        <mxCell id="VZRTfVRfsdjERJp8t25M-16" value="3" style="strokeWidth=1;shadow=0;dashed=0;align=center;html=1;shape=mxgraph.mockup.forms.rrect;rSize=0;strokeColor=#999999;fontColor=#999999;fontFamily=Verdana;fontSize=14;" vertex="1" parent="VZRTfVRfsdjERJp8t25M-3">
          <mxGeometry x="50" y="48" width="20" height="20" as="geometry" />
        </mxCell>
        <mxCell id="VZRTfVRfsdjERJp8t25M-17" value="4" style="strokeWidth=1;shadow=0;dashed=0;align=center;html=1;shape=mxgraph.mockup.forms.rrect;rSize=0;strokeColor=#999999;fontColor=#999999;fontFamily=Verdana;fontSize=14;" vertex="1" parent="VZRTfVRfsdjERJp8t25M-3">
          <mxGeometry x="70" y="48" width="20" height="20" as="geometry" />
        </mxCell>
        <mxCell id="VZRTfVRfsdjERJp8t25M-18" value="5" style="strokeWidth=1;shadow=0;dashed=0;align=center;html=1;shape=mxgraph.mockup.forms.rrect;rSize=0;strokeColor=#999999;fontColor=#999999;fontFamily=Verdana;fontSize=14;" vertex="1" parent="VZRTfVRfsdjERJp8t25M-3">
          <mxGeometry x="90" y="48" width="20" height="20" as="geometry" />
        </mxCell>
        <mxCell id="VZRTfVRfsdjERJp8t25M-19" value="6" style="strokeWidth=1;shadow=0;dashed=0;align=center;html=1;shape=mxgraph.mockup.forms.rrect;rSize=0;strokeColor=#999999;fontColor=#999999;fontFamily=Verdana;fontSize=14;" vertex="1" parent="VZRTfVRfsdjERJp8t25M-3">
          <mxGeometry x="110" y="48" width="20" height="20" as="geometry" />
        </mxCell>
        <mxCell id="VZRTfVRfsdjERJp8t25M-20" value="7" style="strokeWidth=1;shadow=0;dashed=0;align=center;html=1;shape=mxgraph.mockup.forms.rrect;rSize=0;strokeColor=#999999;fontColor=#999999;fontFamily=Verdana;fontSize=14;" vertex="1" parent="VZRTfVRfsdjERJp8t25M-3">
          <mxGeometry x="130" y="48" width="20" height="20" as="geometry" />
        </mxCell>
        <mxCell id="VZRTfVRfsdjERJp8t25M-21" value="8" style="strokeWidth=1;shadow=0;dashed=0;align=center;html=1;shape=mxgraph.mockup.forms.rrect;rSize=0;strokeColor=#999999;fontColor=#999999;fontFamily=Verdana;fontSize=14;" vertex="1" parent="VZRTfVRfsdjERJp8t25M-3">
          <mxGeometry x="10" y="68" width="20" height="20" as="geometry" />
        </mxCell>
        <mxCell id="VZRTfVRfsdjERJp8t25M-22" value="9" style="strokeWidth=1;shadow=0;dashed=0;align=center;html=1;shape=mxgraph.mockup.forms.rrect;rSize=0;strokeColor=#999999;fontColor=#999999;fontFamily=Verdana;fontSize=14;" vertex="1" parent="VZRTfVRfsdjERJp8t25M-3">
          <mxGeometry x="30" y="68" width="20" height="20" as="geometry" />
        </mxCell>
        <mxCell id="VZRTfVRfsdjERJp8t25M-23" value="10" style="strokeWidth=1;shadow=0;dashed=0;align=center;html=1;shape=mxgraph.mockup.forms.rrect;rSize=0;strokeColor=#999999;fontColor=#999999;fontFamily=Verdana;fontSize=14;" vertex="1" parent="VZRTfVRfsdjERJp8t25M-3">
          <mxGeometry x="50" y="68" width="20" height="20" as="geometry" />
        </mxCell>
        <mxCell id="VZRTfVRfsdjERJp8t25M-24" value="11" style="strokeWidth=1;shadow=0;dashed=0;align=center;html=1;shape=mxgraph.mockup.forms.rrect;rSize=0;strokeColor=#999999;fontColor=#999999;fontFamily=Verdana;fontSize=14;" vertex="1" parent="VZRTfVRfsdjERJp8t25M-3">
          <mxGeometry x="70" y="68" width="20" height="20" as="geometry" />
        </mxCell>
        <mxCell id="VZRTfVRfsdjERJp8t25M-25" value="12" style="strokeWidth=1;shadow=0;dashed=0;align=center;html=1;shape=mxgraph.mockup.forms.rrect;rSize=0;strokeColor=#999999;fontColor=#999999;fontFamily=Verdana;fontSize=14;" vertex="1" parent="VZRTfVRfsdjERJp8t25M-3">
          <mxGeometry x="90" y="68" width="20" height="20" as="geometry" />
        </mxCell>
        <mxCell id="VZRTfVRfsdjERJp8t25M-26" value="13" style="strokeWidth=1;shadow=0;dashed=0;align=center;html=1;shape=mxgraph.mockup.forms.rrect;rSize=0;strokeColor=#999999;fontColor=#999999;fontFamily=Verdana;fontSize=14;" vertex="1" parent="VZRTfVRfsdjERJp8t25M-3">
          <mxGeometry x="110" y="68" width="20" height="20" as="geometry" />
        </mxCell>
        <mxCell id="VZRTfVRfsdjERJp8t25M-27" value="14" style="strokeWidth=1;shadow=0;dashed=0;align=center;html=1;shape=mxgraph.mockup.forms.rrect;rSize=0;strokeColor=#999999;fontColor=#999999;fontFamily=Verdana;fontSize=14;" vertex="1" parent="VZRTfVRfsdjERJp8t25M-3">
          <mxGeometry x="130" y="68" width="20" height="20" as="geometry" />
        </mxCell>
        <mxCell id="VZRTfVRfsdjERJp8t25M-28" value="15" style="strokeWidth=1;shadow=0;dashed=0;align=center;html=1;shape=mxgraph.mockup.forms.rrect;rSize=0;strokeColor=#999999;fontColor=#999999;fontFamily=Verdana;fontSize=14;" vertex="1" parent="VZRTfVRfsdjERJp8t25M-3">
          <mxGeometry x="10" y="88" width="20" height="20" as="geometry" />
        </mxCell>
        <mxCell id="VZRTfVRfsdjERJp8t25M-29" value="16" style="strokeWidth=1;shadow=0;dashed=0;align=center;html=1;shape=mxgraph.mockup.forms.rrect;rSize=0;strokeColor=#999999;fontColor=#999999;fontFamily=Verdana;fontSize=14;" vertex="1" parent="VZRTfVRfsdjERJp8t25M-3">
          <mxGeometry x="30" y="88" width="20" height="20" as="geometry" />
        </mxCell>
        <mxCell id="VZRTfVRfsdjERJp8t25M-30" value="17" style="strokeWidth=1;shadow=0;dashed=0;align=center;html=1;shape=mxgraph.mockup.forms.rrect;rSize=0;strokeColor=#999999;fontColor=#999999;fontFamily=Verdana;fontSize=14;" vertex="1" parent="VZRTfVRfsdjERJp8t25M-3">
          <mxGeometry x="50" y="88" width="20" height="20" as="geometry" />
        </mxCell>
        <mxCell id="VZRTfVRfsdjERJp8t25M-31" value="18" style="strokeWidth=1;shadow=0;dashed=0;align=center;html=1;shape=mxgraph.mockup.forms.rrect;rSize=0;strokeColor=#999999;fontColor=#999999;fontFamily=Verdana;fontSize=14;" vertex="1" parent="VZRTfVRfsdjERJp8t25M-3">
          <mxGeometry x="70" y="88" width="20" height="20" as="geometry" />
        </mxCell>
        <mxCell id="VZRTfVRfsdjERJp8t25M-32" value="19" style="strokeWidth=1;shadow=0;dashed=0;align=center;html=1;shape=mxgraph.mockup.forms.rrect;rSize=0;strokeColor=#999999;fontColor=#999999;fontFamily=Verdana;fontSize=14;" vertex="1" parent="VZRTfVRfsdjERJp8t25M-3">
          <mxGeometry x="90" y="88" width="20" height="20" as="geometry" />
        </mxCell>
        <mxCell id="VZRTfVRfsdjERJp8t25M-33" value="20" style="strokeWidth=1;shadow=0;dashed=0;align=center;html=1;shape=mxgraph.mockup.forms.rrect;rSize=0;strokeColor=#999999;fontColor=#999999;fontFamily=Verdana;fontSize=14;" vertex="1" parent="VZRTfVRfsdjERJp8t25M-3">
          <mxGeometry x="110" y="88" width="20" height="20" as="geometry" />
        </mxCell>
        <mxCell id="VZRTfVRfsdjERJp8t25M-34" value="21" style="strokeWidth=1;shadow=0;dashed=0;align=center;html=1;shape=mxgraph.mockup.forms.rrect;rSize=0;strokeColor=#999999;fontColor=#999999;fontFamily=Verdana;fontSize=14;" vertex="1" parent="VZRTfVRfsdjERJp8t25M-3">
          <mxGeometry x="130" y="88" width="20" height="20" as="geometry" />
        </mxCell>
        <mxCell id="VZRTfVRfsdjERJp8t25M-35" value="22" style="strokeWidth=1;shadow=0;dashed=0;align=center;html=1;shape=mxgraph.mockup.forms.rrect;rSize=0;strokeColor=#999999;fontColor=#999999;fontFamily=Verdana;fontSize=14;" vertex="1" parent="VZRTfVRfsdjERJp8t25M-3">
          <mxGeometry x="10" y="108" width="20" height="20" as="geometry" />
        </mxCell>
        <mxCell id="VZRTfVRfsdjERJp8t25M-36" value="23" style="strokeWidth=1;shadow=0;dashed=0;align=center;html=1;shape=mxgraph.mockup.forms.rrect;rSize=0;strokeColor=#999999;fontColor=#999999;fontFamily=Verdana;fontSize=14;" vertex="1" parent="VZRTfVRfsdjERJp8t25M-3">
          <mxGeometry x="30" y="108" width="20" height="20" as="geometry" />
        </mxCell>
        <mxCell id="VZRTfVRfsdjERJp8t25M-37" value="25" style="strokeWidth=1;shadow=0;dashed=0;align=center;html=1;shape=mxgraph.mockup.forms.rrect;rSize=0;strokeColor=#999999;fontColor=#999999;fontFamily=Verdana;fontSize=14;" vertex="1" parent="VZRTfVRfsdjERJp8t25M-3">
          <mxGeometry x="70" y="108" width="20" height="20" as="geometry" />
        </mxCell>
        <mxCell id="VZRTfVRfsdjERJp8t25M-38" value="26" style="strokeWidth=1;shadow=0;dashed=0;align=center;html=1;shape=mxgraph.mockup.forms.rrect;rSize=0;strokeColor=#999999;fontColor=#999999;fontFamily=Verdana;fontSize=14;" vertex="1" parent="VZRTfVRfsdjERJp8t25M-3">
          <mxGeometry x="90" y="108" width="20" height="20" as="geometry" />
        </mxCell>
        <mxCell id="VZRTfVRfsdjERJp8t25M-39" value="27" style="strokeWidth=1;shadow=0;dashed=0;align=center;html=1;shape=mxgraph.mockup.forms.rrect;rSize=0;strokeColor=#999999;fontColor=#999999;fontFamily=Verdana;fontSize=14;" vertex="1" parent="VZRTfVRfsdjERJp8t25M-3">
          <mxGeometry x="110" y="108" width="20" height="20" as="geometry" />
        </mxCell>
        <mxCell id="VZRTfVRfsdjERJp8t25M-40" value="28" style="strokeWidth=1;shadow=0;dashed=0;align=center;html=1;shape=mxgraph.mockup.forms.rrect;rSize=0;strokeColor=#999999;fontColor=#999999;fontFamily=Verdana;fontSize=14;" vertex="1" parent="VZRTfVRfsdjERJp8t25M-3">
          <mxGeometry x="130" y="108" width="20" height="20" as="geometry" />
        </mxCell>
        <mxCell id="VZRTfVRfsdjERJp8t25M-41" value="29" style="strokeWidth=1;shadow=0;dashed=0;align=center;html=1;shape=mxgraph.mockup.forms.rrect;rSize=0;strokeColor=#999999;fontColor=#999999;fontFamily=Verdana;fontSize=14;" vertex="1" parent="VZRTfVRfsdjERJp8t25M-3">
          <mxGeometry x="10" y="128" width="20" height="20" as="geometry" />
        </mxCell>
        <mxCell id="VZRTfVRfsdjERJp8t25M-42" value="30" style="strokeWidth=1;shadow=0;dashed=0;align=center;html=1;shape=mxgraph.mockup.forms.rrect;rSize=0;strokeColor=#999999;fontColor=#999999;fontFamily=Verdana;fontSize=14;" vertex="1" parent="VZRTfVRfsdjERJp8t25M-3">
          <mxGeometry x="30" y="128" width="20" height="20" as="geometry" />
        </mxCell>
        <mxCell id="VZRTfVRfsdjERJp8t25M-43" value="31" style="strokeWidth=1;shadow=0;dashed=0;align=center;html=1;shape=mxgraph.mockup.forms.rrect;rSize=0;strokeColor=#999999;fontColor=#999999;fontFamily=Verdana;fontSize=14;" vertex="1" parent="VZRTfVRfsdjERJp8t25M-3">
          <mxGeometry x="50" y="128" width="20" height="20" as="geometry" />
        </mxCell>
        <mxCell id="VZRTfVRfsdjERJp8t25M-44" value="1" style="strokeWidth=1;shadow=0;dashed=0;align=center;html=1;shape=mxgraph.mockup.forms.rrect;rSize=0;strokeColor=#999999;fontColor=#999999;fillColor=#ddeeff;fontFamily=Verdana;fontSize=14;" vertex="1" parent="VZRTfVRfsdjERJp8t25M-3">
          <mxGeometry x="70" y="128" width="20" height="20" as="geometry" />
        </mxCell>
        <mxCell id="VZRTfVRfsdjERJp8t25M-45" value="2" style="strokeWidth=1;shadow=0;dashed=0;align=center;html=1;shape=mxgraph.mockup.forms.rrect;rSize=0;strokeColor=#999999;fontColor=#999999;fillColor=#ddeeff;fontFamily=Verdana;fontSize=14;" vertex="1" parent="VZRTfVRfsdjERJp8t25M-3">
          <mxGeometry x="90" y="128" width="20" height="20" as="geometry" />
        </mxCell>
        <mxCell id="VZRTfVRfsdjERJp8t25M-46" value="3" style="strokeWidth=1;shadow=0;dashed=0;align=center;html=1;shape=mxgraph.mockup.forms.rrect;rSize=0;strokeColor=#999999;fontColor=#999999;fillColor=#ddeeff;fontFamily=Verdana;fontSize=14;" vertex="1" parent="VZRTfVRfsdjERJp8t25M-3">
          <mxGeometry x="110" y="128" width="20" height="20" as="geometry" />
        </mxCell>
        <mxCell id="VZRTfVRfsdjERJp8t25M-47" value="4" style="strokeWidth=1;shadow=0;dashed=0;align=center;html=1;shape=mxgraph.mockup.forms.rrect;rSize=0;strokeColor=#999999;fontColor=#999999;fillColor=#ddeeff;fontFamily=Verdana;fontSize=14;" vertex="1" parent="VZRTfVRfsdjERJp8t25M-3">
          <mxGeometry x="130" y="128" width="20" height="20" as="geometry" />
        </mxCell>
        <mxCell id="VZRTfVRfsdjERJp8t25M-48" value="5" style="strokeWidth=1;shadow=0;dashed=0;align=center;html=1;shape=mxgraph.mockup.forms.rrect;rSize=0;strokeColor=#999999;fontColor=#999999;fillColor=#ddeeff;fontFamily=Verdana;fontSize=14;" vertex="1" parent="VZRTfVRfsdjERJp8t25M-3">
          <mxGeometry x="10" y="148" width="20" height="20" as="geometry" />
        </mxCell>
        <mxCell id="VZRTfVRfsdjERJp8t25M-49" value="6" style="strokeWidth=1;shadow=0;dashed=0;align=center;html=1;shape=mxgraph.mockup.forms.rrect;rSize=0;strokeColor=#999999;fontColor=#999999;fillColor=#ddeeff;fontFamily=Verdana;fontSize=14;" vertex="1" parent="VZRTfVRfsdjERJp8t25M-3">
          <mxGeometry x="30" y="148" width="20" height="20" as="geometry" />
        </mxCell>
        <mxCell id="VZRTfVRfsdjERJp8t25M-50" value="7" style="strokeWidth=1;shadow=0;dashed=0;align=center;html=1;shape=mxgraph.mockup.forms.rrect;rSize=0;strokeColor=#999999;fontColor=#999999;fillColor=#ddeeff;fontFamily=Verdana;fontSize=14;" vertex="1" parent="VZRTfVRfsdjERJp8t25M-3">
          <mxGeometry x="50" y="148" width="20" height="20" as="geometry" />
        </mxCell>
        <mxCell id="VZRTfVRfsdjERJp8t25M-51" value="8" style="strokeWidth=1;shadow=0;dashed=0;align=center;html=1;shape=mxgraph.mockup.forms.rrect;rSize=0;strokeColor=#999999;fontColor=#999999;fillColor=#ddeeff;fontFamily=Verdana;fontSize=14;" vertex="1" parent="VZRTfVRfsdjERJp8t25M-3">
          <mxGeometry x="70" y="148" width="20" height="20" as="geometry" />
        </mxCell>
        <mxCell id="VZRTfVRfsdjERJp8t25M-52" value="9" style="strokeWidth=1;shadow=0;dashed=0;align=center;html=1;shape=mxgraph.mockup.forms.rrect;rSize=0;strokeColor=#999999;fontColor=#999999;fillColor=#ddeeff;fontFamily=Verdana;fontSize=14;" vertex="1" parent="VZRTfVRfsdjERJp8t25M-3">
          <mxGeometry x="90" y="148" width="20" height="20" as="geometry" />
        </mxCell>
        <mxCell id="VZRTfVRfsdjERJp8t25M-53" value="10" style="strokeWidth=1;shadow=0;dashed=0;align=center;html=1;shape=mxgraph.mockup.forms.rrect;rSize=0;strokeColor=#999999;fontColor=#999999;fillColor=#ddeeff;fontFamily=Verdana;fontSize=14;" vertex="1" parent="VZRTfVRfsdjERJp8t25M-3">
          <mxGeometry x="110" y="148" width="20" height="20" as="geometry" />
        </mxCell>
        <mxCell id="VZRTfVRfsdjERJp8t25M-54" value="11" style="strokeWidth=1;shadow=0;dashed=0;align=center;html=1;shape=mxgraph.mockup.forms.rrect;rSize=0;strokeColor=#999999;fontColor=#999999;fillColor=#ddeeff;fontFamily=Verdana;fontSize=14;" vertex="1" parent="VZRTfVRfsdjERJp8t25M-3">
          <mxGeometry x="130" y="148" width="20" height="20" as="geometry" />
        </mxCell>
        <mxCell id="VZRTfVRfsdjERJp8t25M-55" value="24" style="strokeWidth=1;shadow=0;dashed=0;align=center;html=1;shape=mxgraph.mockup.forms.rrect;rSize=0;strokeColor=#ff0000;fontColor=#ffffff;strokeWidth=2;fillColor=#008cff;fontFamily=Verdana;fontSize=14;" vertex="1" parent="VZRTfVRfsdjERJp8t25M-3">
          <mxGeometry x="50" y="108" width="20" height="20" as="geometry" />
        </mxCell>
        <mxCell id="VZRTfVRfsdjERJp8t25M-57" value="&lt;font style=&quot;font-size: 14px;&quot;&gt;&lt;font style=&quot;font-size: 14px;&quot; color=&quot;#ff0000&quot;&gt;*&lt;/font&gt;&lt;font style=&quot;font-size: 14px;&quot;&gt;Rolloff&amp;nbsp;&lt;/font&gt;date&lt;/font&gt;" style="text;html=1;points=[];align=left;verticalAlign=top;spacingTop=-4;fontSize=14;fontFamily=Verdana;" vertex="1" parent="1">
          <mxGeometry x="280" y="699" width="300" height="20" as="geometry" />
        </mxCell>
        <mxCell id="VZRTfVRfsdjERJp8t25M-58" value="" style="strokeWidth=1;shadow=0;dashed=0;align=center;html=1;shape=mxgraph.mockup.forms.comboBox;strokeColor=default;fillColor=default;align=left;fillColor2=#aaddff;mainText=;fontColor=default;fontSize=17;spacingLeft=3;fontFamily=Verdana;" vertex="1" parent="1">
          <mxGeometry x="280" y="725" width="160" height="25" as="geometry" />
        </mxCell>
        <mxCell id="VZRTfVRfsdjERJp8t25M-64" value="" style="edgeStyle=orthogonalEdgeStyle;rounded=0;orthogonalLoop=1;jettySize=auto;html=1;fontFamily=Verdana;fontSize=12;fontColor=#9C9C9C;" edge="1" parent="1" source="VZRTfVRfsdjERJp8t25M-18" target="VZRTfVRfsdjERJp8t25M-2">
          <mxGeometry relative="1" as="geometry" />
        </mxCell>
      </root>
    </mxGraphModel>
  </diagram>
</mxfile>
